# xmcd CD database file
#
# Track frame offsets:
#	150
#	9173
#	39233
#	58680
#	72250
#	91973
#	119535
#	140015
#	171523
#	190038
#
# Disc length: 3005 seconds
#
# Revision: 0
# Processed by: cddbd v1.5.1PL2 Copyright (c) Steve Scherf et al.
# Submitted via: CDex 1.51
#
DISCID=850bbb0a
DTITLE=冲方丁 - 蒼穹のファフナー　ドラマCD vol.1　STAND BY ME
DYEAR=2005
DGENRE=Anime
TTITLE0=?
TTITLE1=?
TTITLE2=?
TTITLE3=?
TTITLE4=?
TTITLE5=?
TTITLE6=?
TTITLE7=?
TTITLE8=?
TTITLE9=?
EXTD=YEAR: 2005
EXTT0=
EXTT1=
EXTT2=
EXTT3=
EXTT4=
EXTT5=
EXTT6=
EXTT7=
EXTT8=
EXTT9=
PLAYORDER=
